<?xml version="1.0" encoding="UTF-8"?>
<svg id="Layer_1" data-name="Layer 1" xmlns="http://www.w3.org/2000/svg" xmlns:xlink="http://www.w3.org/1999/xlink" viewBox="0 0 691.2 464.19">
  <defs>
    <style>
      .cls-1 {
        fill: url(#linear-gradient);
      }

      .cls-1, .cls-2 {
        stroke-width: 0px;
      }

      .cls-2 {
        fill: #000;
      }
    </style>
    <linearGradient id="linear-gradient" x1="243.99" y1="55.94" x2="421.89" y2="233.84" gradientUnits="userSpaceOnUse">
      <stop offset="0" stop-color="#ffce00"/>
      <stop offset="1" stop-color="#6715e8"/>
    </linearGradient>
  </defs>
  <path class="cls-2" d="M403.35,387.34c-1.61-13.01-3.11-26.05-4.03-39.13-.01-.2-.03-.4-.05-.59-.82-10.59-3.46-19.73-7.93-27.18,0,0-.01,0-.01-.01-9.14-14.07-25.5-22.65-45.9-22.71-27.43-.07-47.66,15.9-52.37,39.98-.05.29-.1.57-.16.85-.81,4.76-1.02,9.88-.54,15.3.5,5.62,1.64,10.84,3.45,15.63.05.13.11.27.16.4,4.63,12.05,13.48,21.25,26.61,26.7,8.4,3.48,16.62,5.09,24.36,4.14,9.23-1.14,17.73-5.95,24.97-15.64,1.02,2.92,1.8,5.63,2.78,8.16.36.91.74,1.79,1.16,2.65.78,1.57,2.84,3.48,4.39,3.53,8.77.34,17.55.17,26.91.17-1.52-4.77-3.31-8.42-3.78-12.23M368.85,351.1c-.41,11.61-6.24,18.82-16.61,20.83-.01,0-.01.01-.03,0-2.1.5-4.38.77-6.81.78-6.28.05-11.49-1.65-15.37-4.84-.03-.03-.05-.04-.07-.05-3.66-2.86-6.06-6.98-7.04-12.23-.05-.25-.1-.5-.15-.75-.33-1.78-.52-3.69-.54-5.7-.16-14.69,8.41-23.45,23.05-23.57h1.56c7.97.11,14.08,3.19,17.81,8.65.12.16.24.33.34.5,2.51,3.7,3.89,8.42,3.91,13.95,0,.83-.03,1.64-.08,2.43"/>
  <path class="cls-2" d="M542.13,297.71c31.89.08,53.92,21,53.87,51.17-.05,30.06-22.8,52.03-53.66,51.84-31.92-.2-53.75-21.48-53.62-52.25.13-29.98,22.07-50.83,53.41-50.75M518.97,349.13c.17,14.79,8.9,23.69,23.15,23.58,14.78-.12,23.6-9.13,23.53-24.04-.07-14.33-9.16-23.22-23.63-23.11-14.64.12-23.22,8.88-23.05,23.56"/>
  <path class="cls-2" d="M278.77,399.25h-30.09c0-15.41.07-30.5-.05-45.59-.03-4.13-.24-8.33-1.07-12.36-2.33-11.3-10.16-16.51-22.87-15.65-10,.67-17.66,7.83-18.16,18.23-.59,12.05-.29,24.15-.35,36.22-.03,6.12,0,12.24,0,18.92h-30.67c0-3.36-.03-6.78,0-10.19.17-15.15-.12-30.31.65-45.43,1.28-25.42,21.07-44.33,46.52-45.59,18.38-.91,34.38,3.87,45.98,18.9,6.15,7.97,9.72,17.37,9.99,27.37.49,18.18.14,36.38.14,55.17"/>
  <rect class="cls-2" x="73.39" y="258.62" width="29.6" height="140.66"/>
  <path class="cls-2" d="M420.75,399.19c0-20.73-1.66-41.23.45-61.35,2.3-22.05,21.71-37.61,45.2-39.76,5.42-.49,10.92-.07,16.96-.07v28.5c-5.67.47-11.15.45-16.44,1.46-10.03,1.9-15.71,7.54-16.28,17.77-.83,14.88-.51,29.83-.66,44.74-.03,2.79,0,5.58,0,8.72h-29.23Z"/>
  <rect class="cls-2" x="124.51" y="299.1" width="29.19" height="100.19"/>
  <path class="cls-2" d="M121.53,271.04c.05-10.29,6.91-16.92,17.56-16.99,10.36-.07,17.24,6.81,17.2,17.22-.04,10.58-6.72,17.42-17.08,17.49-10.52.07-17.73-7.16-17.68-17.72"/>
  <path class="cls-2" d="M605.19,297.84h19.15v3.02h-7.73v18.22h-3.69v-18.22h-7.73v-3.02ZM648.75,319.08l-.05-14.9-7.99,12.39h-1.69l-8.04-12.13v14.64h-3.53v-21.24h3.02l9.47,14.54,9.27-14.54h3.02l.05,21.24h-3.53Z"/>
  <path class="cls-1" d="M479.41,144.59c.77-52.87-54.8-90.45-102.55-66.32-14.17,6.51-28.01,19.41-43.95,19.47-11.47.12-22.28-7.26-32.18-13.26-9.7-6.02-20.11-10.92-31.44-12.66-43.8-7.51-83.77,29.09-83.17,73.07-.59,44.1,39.54,80.72,83.45,73.02,11.32-1.78,21.71-6.74,31.4-12.76,9.89-6,20.71-13.32,32.18-13.11,15.85.2,29.59,12.97,43.71,19.47,47.92,24.22,103.53-13.69,102.54-66.61v-.31ZM442.95,148.95c-1.26,16.07-12.95,31.89-29.62,33.29-27.75,1.73-46-27.59-72.79-31.13-28.45-5.39-48.52,19.91-72.14,28.94-17.61,6.93-36.21-2.15-42.78-19.76-7.42-18.04-.4-42.49,18.22-50.38,41.04-15.34,62.39,51.67,116.35,21.66,16.22-8.75,30.22-23.05,48.74-24.05,21.67-1.29,36.36,20.95,34.05,41.14l-.03.29Z"/>
</svg>